<mxfile host="drawio-plugin" modified="2024-05-14T11:42:46.860Z" agent="5.0 (Windows NT 10.0; Win64; x64) AppleWebKit/537.36 (KHTML, like Gecko) Chrome/111.0.0.0 Safari/537.36" etag="hIg3XAtUvHigdmofPD50" version="20.5.3" type="embed"><diagram id="23iRSUPoRavnBvh4doch" name="Page-1"><mxGraphModel dx="2019" dy="1118" grid="1" gridSize="10" guides="1" tooltips="1" connect="1" arrows="1" fold="1" page="1" pageScale="1" pageWidth="827" pageHeight="1169" math="0" shadow="0"><root><mxCell id="0"/><mxCell id="1" parent="0"/><mxCell id="22" value="" style="swimlane;startSize=0;fontSize=16;" parent="1" vertex="1"><mxGeometry x="-590" y="120" width="120" height="80" as="geometry"/></mxCell><mxCell id="23" value="" style="endArrow=none;html=1;rounded=0;fontSize=16;entryX=1;entryY=0.5;entryDx=0;entryDy=0;" parent="22" target="22" edge="1"><mxGeometry width="50" height="50" relative="1" as="geometry"><mxPoint x="10" y="40" as="sourcePoint"/><mxPoint x="114" y="39.5" as="targetPoint"/></mxGeometry></mxCell><mxCell id="12" value="&lt;b&gt;Department&lt;/b&gt;" style="text;html=1;align=center;verticalAlign=middle;resizable=0;points=[];autosize=1;strokeColor=none;fillColor=none;fontSize=16;" parent="22" vertex="1"><mxGeometry width="110" height="30" as="geometry"/></mxCell><mxCell id="14" value="name: str" style="text;html=1;align=center;verticalAlign=middle;resizable=0;points=[];autosize=1;strokeColor=none;fillColor=none;fontSize=16;" parent="22" vertex="1"><mxGeometry y="40" width="90" height="30" as="geometry"/></mxCell><mxCell id="31" value="&lt;b&gt;Examples:&lt;/b&gt;" style="text;html=1;align=center;verticalAlign=middle;resizable=0;points=[];autosize=1;strokeColor=none;fillColor=none;fontSize=16;" parent="1" vertex="1"><mxGeometry x="-820" y="120" width="100" height="30" as="geometry"/></mxCell><mxCell id="32" value="Bridge, Deck, Galley, Engine" style="text;html=1;align=center;verticalAlign=middle;resizable=0;points=[];autosize=1;strokeColor=none;fillColor=none;fontSize=16;" parent="1" vertex="1"><mxGeometry x="-827" y="170" width="230" height="30" as="geometry"/></mxCell><mxCell id="33" value="Position" style="swimlane;whiteSpace=wrap;html=1;fontSize=16;" parent="1" vertex="1"><mxGeometry x="-320" y="85" width="200" height="115" as="geometry"/></mxCell><mxCell id="42" value="name: str" style="text;html=1;align=center;verticalAlign=middle;resizable=0;points=[];autosize=1;strokeColor=none;fillColor=none;fontSize=16;" parent="33" vertex="1"><mxGeometry y="35" width="90" height="30" as="geometry"/></mxCell><mxCell id="102" value="&lt;font style=&quot;font-size: 17px;&quot;&gt;duties: str&lt;/font&gt;" style="text;html=1;align=center;verticalAlign=middle;resizable=0;points=[];autosize=1;strokeColor=none;fillColor=none;" vertex="1" parent="33"><mxGeometry x="-5" y="75" width="100" height="30" as="geometry"/></mxCell><mxCell id="44" value="Examples:" style="text;html=1;align=center;verticalAlign=middle;resizable=0;points=[];autosize=1;strokeColor=none;fillColor=none;fontSize=16;" parent="1" vertex="1"><mxGeometry x="-395" y="10" width="100" height="30" as="geometry"/></mxCell><mxCell id="45" value="Master, ChOFF, ChEng, 2nd Off, 3rd Off, 2nd Eng" style="text;html=1;align=center;verticalAlign=middle;resizable=0;points=[];autosize=1;strokeColor=none;fillColor=none;fontSize=16;" parent="1" vertex="1"><mxGeometry x="-395" y="50" width="380" height="30" as="geometry"/></mxCell><mxCell id="55" value="Worker (AbstractUser)" style="swimlane;whiteSpace=wrap;html=1;fontSize=16;" parent="1" vertex="1"><mxGeometry x="-320" y="240" width="200" height="280" as="geometry"/></mxCell><mxCell id="56" value="position: Position" style="text;html=1;align=center;verticalAlign=middle;resizable=0;points=[];autosize=1;strokeColor=none;fillColor=none;fontSize=16;" parent="55" vertex="1"><mxGeometry y="35" width="140" height="30" as="geometry"/></mxCell><mxCell id="57" value="username: str" style="text;html=1;align=center;verticalAlign=middle;resizable=0;points=[];autosize=1;strokeColor=none;fillColor=none;fontSize=16;" parent="55" vertex="1"><mxGeometry y="80" width="120" height="30" as="geometry"/></mxCell><mxCell id="58" value="email: str" style="text;html=1;align=center;verticalAlign=middle;resizable=0;points=[];autosize=1;strokeColor=none;fillColor=none;fontSize=16;" parent="55" vertex="1"><mxGeometry y="125" width="90" height="30" as="geometry"/></mxCell><mxCell id="59" value="password: str" style="text;html=1;align=center;verticalAlign=middle;resizable=0;points=[];autosize=1;strokeColor=none;fillColor=none;fontSize=16;" parent="55" vertex="1"><mxGeometry y="165" width="120" height="30" as="geometry"/></mxCell><mxCell id="60" value="first_name: str" style="text;html=1;align=center;verticalAlign=middle;resizable=0;points=[];autosize=1;strokeColor=none;fillColor=none;fontSize=16;" parent="55" vertex="1"><mxGeometry y="210" width="120" height="30" as="geometry"/></mxCell><mxCell id="61" value="last_name: str" style="text;html=1;align=center;verticalAlign=middle;resizable=0;points=[];autosize=1;strokeColor=none;fillColor=none;fontSize=16;" parent="55" vertex="1"><mxGeometry y="250" width="120" height="30" as="geometry"/></mxCell><mxCell id="65" value="" style="endArrow=none;html=1;rounded=0;fontSize=16;entryX=-0.01;entryY=0.713;entryDx=0;entryDy=0;entryPerimeter=0;" parent="1" target="56" edge="1"><mxGeometry width="50" height="50" relative="1" as="geometry"><mxPoint x="-400" y="296" as="sourcePoint"/><mxPoint x="-340" y="290" as="targetPoint"/></mxGeometry></mxCell><mxCell id="66" value="" style="endArrow=none;html=1;rounded=0;fontSize=16;" parent="1" edge="1"><mxGeometry width="50" height="50" relative="1" as="geometry"><mxPoint x="-400" y="290" as="sourcePoint"/><mxPoint x="-400" y="120" as="targetPoint"/></mxGeometry></mxCell><mxCell id="68" value="" style="endArrow=classic;html=1;rounded=0;fontSize=16;" parent="1" edge="1"><mxGeometry width="50" height="50" relative="1" as="geometry"><mxPoint x="-400" y="120" as="sourcePoint"/><mxPoint x="-330" y="120" as="targetPoint"/></mxGeometry></mxCell><mxCell id="69" value="n" style="text;html=1;align=center;verticalAlign=middle;resizable=0;points=[];autosize=1;strokeColor=none;fillColor=none;fontSize=16;fontStyle=0" parent="1" vertex="1"><mxGeometry x="-375" y="265" width="30" height="30" as="geometry"/></mxCell><mxCell id="70" value="1" style="text;html=1;align=center;verticalAlign=middle;resizable=0;points=[];autosize=1;strokeColor=none;fillColor=none;fontSize=16;fontStyle=1" parent="1" vertex="1"><mxGeometry x="-375" y="85" width="30" height="30" as="geometry"/></mxCell><mxCell id="71" value="Maintenance" style="swimlane;whiteSpace=wrap;html=1;fontSize=16;" parent="1" vertex="1"><mxGeometry y="180" width="200" height="260" as="geometry"/></mxCell><mxCell id="72" value="name: str" style="text;html=1;align=center;verticalAlign=middle;resizable=0;points=[];autosize=1;strokeColor=none;fillColor=none;fontSize=16;" parent="71" vertex="1"><mxGeometry y="30" width="90" height="30" as="geometry"/></mxCell><mxCell id="73" value="description: text" style="text;html=1;align=center;verticalAlign=middle;resizable=0;points=[];autosize=1;strokeColor=none;fillColor=none;fontSize=16;" parent="71" vertex="1"><mxGeometry x="-10" y="70" width="140" height="30" as="geometry"/></mxCell><mxCell id="74" value="deadline: date" style="text;html=1;align=center;verticalAlign=middle;resizable=0;points=[];autosize=1;strokeColor=none;fillColor=none;fontSize=16;" parent="71" vertex="1"><mxGeometry y="110" width="120" height="30" as="geometry"/></mxCell><mxCell id="75" value="is_complited: bool" style="text;html=1;align=center;verticalAlign=middle;resizable=0;points=[];autosize=1;strokeColor=none;fillColor=none;fontSize=16;" parent="71" vertex="1"><mxGeometry y="150" width="150" height="30" as="geometry"/></mxCell><mxCell id="76" value="department: Department" style="text;html=1;align=center;verticalAlign=middle;resizable=0;points=[];autosize=1;strokeColor=none;fillColor=none;fontSize=16;" parent="71" vertex="1"><mxGeometry x="-10" y="190" width="200" height="30" as="geometry"/></mxCell><mxCell id="77" value="person_in_charge: Worker" style="text;html=1;align=center;verticalAlign=middle;resizable=0;points=[];autosize=1;strokeColor=none;fillColor=none;fontSize=16;" parent="71" vertex="1"><mxGeometry x="-10" y="235" width="210" height="30" as="geometry"/></mxCell><mxCell id="81" value="" style="endArrow=none;html=1;rounded=0;fontSize=16;" parent="1" edge="1"><mxGeometry width="50" height="50" relative="1" as="geometry"><mxPoint x="-80" y="420" as="sourcePoint"/><mxPoint x="-80" y="260" as="targetPoint"/></mxGeometry></mxCell><mxCell id="83" value="" style="endArrow=classic;html=1;rounded=0;fontSize=16;entryX=1.021;entryY=0.064;entryDx=0;entryDy=0;entryPerimeter=0;" parent="1" target="55" edge="1"><mxGeometry width="50" height="50" relative="1" as="geometry"><mxPoint x="-80" y="265" as="sourcePoint"/><mxPoint x="-30" y="215" as="targetPoint"/></mxGeometry></mxCell><mxCell id="84" value="" style="endArrow=classic;html=1;rounded=0;fontSize=16;entryX=-0.001;entryY=0.153;entryDx=0;entryDy=0;entryPerimeter=0;" parent="1" target="77" edge="1"><mxGeometry width="50" height="50" relative="1" as="geometry"><mxPoint x="-80" y="420" as="sourcePoint"/><mxPoint x="-30" y="370" as="targetPoint"/></mxGeometry></mxCell><mxCell id="85" value="0...n" style="text;html=1;align=center;verticalAlign=middle;resizable=0;points=[];autosize=1;strokeColor=none;fillColor=none;fontSize=16;" parent="1" vertex="1"><mxGeometry x="-65" y="425" width="50" height="30" as="geometry"/></mxCell><mxCell id="86" value="0...n" style="text;html=1;align=center;verticalAlign=middle;resizable=0;points=[];autosize=1;strokeColor=none;fillColor=none;fontSize=16;" parent="1" vertex="1"><mxGeometry x="-120" y="220" width="50" height="30" as="geometry"/></mxCell><mxCell id="87" value="" style="endArrow=none;html=1;rounded=0;fontSize=16;" parent="1" edge="1"><mxGeometry width="50" height="50" relative="1" as="geometry"><mxPoint x="-100" y="375" as="sourcePoint"/><mxPoint y="375" as="targetPoint"/></mxGeometry></mxCell><mxCell id="89" value="" style="endArrow=none;html=1;rounded=0;fontSize=16;" parent="1" edge="1"><mxGeometry width="50" height="50" relative="1" as="geometry"><mxPoint x="-100" y="590" as="sourcePoint"/><mxPoint x="-100" y="375" as="targetPoint"/></mxGeometry></mxCell><mxCell id="90" value="" style="endArrow=none;html=1;rounded=0;fontSize=16;" parent="1" edge="1"><mxGeometry width="50" height="50" relative="1" as="geometry"><mxPoint x="-520" y="585" as="sourcePoint"/><mxPoint x="-100" y="585" as="targetPoint"/></mxGeometry></mxCell><mxCell id="92" value="" style="endArrow=classic;html=1;rounded=0;fontSize=16;entryX=0.592;entryY=1.015;entryDx=0;entryDy=0;entryPerimeter=0;" parent="1" target="22" edge="1"><mxGeometry width="50" height="50" relative="1" as="geometry"><mxPoint x="-520" y="580" as="sourcePoint"/><mxPoint x="-470" y="530" as="targetPoint"/></mxGeometry></mxCell><mxCell id="93" value="n" style="text;html=1;align=center;verticalAlign=middle;resizable=0;points=[];autosize=1;strokeColor=none;fillColor=none;fontSize=16;" parent="1" vertex="1"><mxGeometry x="-35" y="350" width="30" height="30" as="geometry"/></mxCell><mxCell id="94" value="1" style="text;html=1;align=center;verticalAlign=middle;resizable=0;points=[];autosize=1;strokeColor=none;fillColor=none;fontSize=16;" parent="1" vertex="1"><mxGeometry x="-515" y="200" width="30" height="30" as="geometry"/></mxCell></root></mxGraphModel></diagram></mxfile>